<svg width="13" height="13" viewBox="0 0 13 13" fill="none" xmlns="http://www.w3.org/2000/svg">
<g clip-path="url(#clip0)">
<path d="M12.6283 1.77721C12.4371 1.58563 12.1268 1.5853 11.9355 1.77639L6.05778 7.63863L3.9371 5.33537C3.75386 5.13646 3.44404 5.12356 3.2448 5.30678C3.04572 5.49003 3.03297 5.79999 3.21621 5.99908L5.6823 8.67731C5.77262 8.77547 5.89901 8.83247 6.03229 8.83524C6.03587 8.83539 6.03932 8.83539 6.04275 8.83539C6.17227 8.83539 6.29686 8.78395 6.38865 8.69249L12.6274 2.47014C12.8191 2.27908 12.8194 1.96878 12.6283 1.77721Z" fill="#EC621F"/>
<path d="M12.5101 6.01004C12.2395 6.01004 12.0201 6.22936 12.0201 6.5C12.0201 9.5439 9.54393 12.0201 6.50003 12.0201C3.4563 12.0201 0.979931 9.5439 0.979931 6.5C0.979931 3.45627 3.4563 0.9799 6.50003 0.9799C6.77064 0.9799 6.98999 0.760576 6.98999 0.489963C6.98999 0.219324 6.77064 0 6.50003 0C2.91589 0 3.05176e-05 2.91586 3.05176e-05 6.5C3.05176e-05 10.084 2.91589 13 6.50003 13C10.084 13 13 10.084 13 6.5C13 6.22939 12.7807 6.01004 12.5101 6.01004Z" fill="#EC621F"/>
</g>
<defs>
<clipPath id="clip0">
<rect width="13" height="13" fill="white"/>
</clipPath>
</defs>
</svg>
